<svg width="20" height="21" viewBox="0 0 20 21" fill="none" xmlns="http://www.w3.org/2000/svg">
<path fill-rule="evenodd" clip-rule="evenodd" d="M19.7722 10.4143C20.1411 9.815 20.0641 9.03907 19.5256 8.53264L11.0326 0.520169C10.4524 -0.0258637 9.54796 -0.0258637 8.96827 0.519779L0.473232 8.53315C-0.514294 9.46485 0.146773 11.1235 1.50556 11.1235H2.96875V18.6141C2.96875 19.443 3.64158 20.1141 4.47152 20.1141H15.5289C16.3588 20.1141 17.0317 19.443 17.0317 18.6141V9.58911C17.0317 8.76024 16.3588 8.08911 15.5289 8.08911H4.47152C3.64158 8.08911 2.96875 8.76024 2.96875 9.58911V10.1235H1.50556C1.05299 10.1235 0.83247 9.57023 1.16138 9.25992L9.656 1.24695C9.84934 1.06496 10.1511 1.06496 10.3448 1.24731L18.838 9.25992C19.0182 9.42935 19.0451 9.67649 18.9242 9.88153C18.9224 9.88427 18.9207 9.88703 18.919 9.88981C18.8281 10.0369 18.6794 10.1233 18.4948 10.1233C18.2181 10.1233 17.9938 10.3471 17.9938 10.6233C17.9938 10.8994 18.2181 11.1233 18.4948 11.1233C19.0275 11.1233 19.4906 10.858 19.7619 10.4303C19.7654 10.4251 19.7689 10.4197 19.7722 10.4143ZM3.9706 18.6141V11.1235H9.93709C10.2137 11.1235 10.438 10.8997 10.438 10.6235C10.438 10.3474 10.2137 10.1235 9.93709 10.1235H3.9706V9.58911C3.9706 9.31268 4.19473 9.08911 4.47152 9.08911H15.5289C15.8057 9.08911 16.0298 9.31268 16.0298 9.58911V18.6141C16.0298 18.8905 15.8057 19.1141 15.5289 19.1141H4.47152C4.19473 19.1141 3.9706 18.8905 3.9706 18.6141Z" fill="white"/>
</svg>
