<svg width="47" height="61" viewBox="0 0 47 61" fill="currentColor" xmlns="http://www.w3.org/2000/svg">
<path d="M47 52.5272V16.9022L29.375 0.0272217H7.83333C5.7558 0.0272217 3.76336 0.817398 2.29433 2.22392C0.825295 3.63044 0 5.5381 0 7.52722V52.5272C0 54.5163 0.825295 56.424 2.29433 57.8305C3.76336 59.237 5.7558 60.0272 7.83333 60.0272H39.1667C41.2442 60.0272 43.2366 59.237 44.7057 57.8305C46.1747 56.424 47 54.5163 47 52.5272ZM29.375 11.2772C29.375 12.7691 29.994 14.1998 31.0957 15.2547C32.1975 16.3096 33.6919 16.9022 35.25 16.9022H43.0833V52.5272C43.0833 53.5218 42.6707 54.4756 41.9362 55.1789C41.2017 55.8821 40.2054 56.2772 39.1667 56.2772H7.83333C6.79457 56.2772 5.79835 55.8821 5.06383 55.1789C4.32931 54.4756 3.91667 53.5218 3.91667 52.5272V7.52722C3.91667 6.53266 4.32931 5.57883 5.06383 4.87557C5.79835 4.17231 6.79457 3.77722 7.83333 3.77722H29.375V11.2772Z" />
<path d="M26.9015 32.3552L24.2089 28.7931L26.1378 28.3996L28.8205 31.9616L26.9015 32.3552ZM33.6279 30.9828L32.8642 27.0272L29.0163 27.8143L31.6991 31.3865L33.6279 30.9828ZM16.5327 30.3774L15.5732 30.5691C15.0655 30.6758 14.6191 30.9848 14.3313 31.4289C14.0434 31.8729 13.9373 32.4162 14.036 32.9404L14.4179 34.9182L19.2155 33.9394L16.5327 30.3774ZM24.0229 32.9505L21.3401 29.3683L19.4113 29.782L22.1038 33.3441L24.0229 32.9505ZM14.4179 34.9182V45.0091C14.4179 45.5443 14.6242 46.0576 14.9914 46.4361C15.3586 46.8146 15.8567 47.0272 16.3761 47.0272H25.9811C25.4818 46.1392 25.188 45.11 25.188 44C25.188 40.6599 27.8218 37.9455 31.0627 37.9455C32.1397 37.9455 33.1384 38.2482 34 38.7628V34.9182H14.4179ZM29.1045 47.0272L34 44L29.1045 40.9727V47.0272Z" />
</svg>
