<svg width="49" height="60" viewBox="0 0 49 60" fill="none" xmlns="http://www.w3.org/2000/svg">
<path d="M7.11983 3.42407e-07C5.45256 3.42407e-07 3.85357 0.662322 2.67463 1.84126C1.49569 3.0202 0.833374 4.61919 0.833374 6.28646V52.8802C0.833374 54.5475 1.49569 56.1465 2.67463 57.3254C3.85357 58.5043 5.45256 59.1667 7.11983 59.1667H41.8803C43.5475 59.1667 45.1465 58.5043 46.3254 57.3254C47.5044 56.1465 48.1667 54.5475 48.1667 52.8802V21.3207C48.1663 20.4385 47.8157 19.5926 47.1919 18.9688L29.1994 0.973292C28.575 0.349692 27.7285 -0.000399667 26.846 3.42407e-07H7.11983ZM4.53129 6.28646C4.53129 4.85758 5.69096 3.69792 7.11983 3.69792H24.5V16.6406C24.5 18.1117 25.0844 19.5226 26.1247 20.5629C27.1649 21.6031 28.5758 22.1875 30.0469 22.1875H44.4688V52.8802C44.4688 53.5667 44.1961 54.2251 43.7106 54.7106C43.2252 55.196 42.5668 55.4688 41.8803 55.4688H7.11983C6.43331 55.4688 5.7749 55.196 5.28946 54.7106C4.80401 54.2251 4.53129 53.5667 4.53129 52.8802V6.28646ZM41.4838 18.4896L35.5776 12.5834C34.1662 11.1719 33 10.0058 31.5776 8.58337L28.198 5.20371L41.4838 18.4896Z" fill="#2C3E50"/>
<path d="M12.0117 43.0834V33.1302H14.9512C15.8307 33.1302 16.61 33.3262 17.2891 33.7181C17.9727 34.1101 18.5013 34.6661 18.875 35.3861C19.2487 36.1062 19.4355 36.931 19.4355 37.8607V38.3597C19.4355 39.3031 19.2464 40.1325 18.8682 40.848C18.4945 41.5635 17.959 42.1149 17.2617 42.5023C16.569 42.8897 15.7738 43.0834 14.876 43.0834H12.0117ZM13.7412 34.5248V41.7025H14.8691C15.776 41.7025 16.471 41.42 16.9541 40.8549C17.4417 40.2852 17.6901 39.4694 17.6992 38.4076V37.8539C17.6992 36.7738 17.4645 35.9489 16.9951 35.3793C16.5257 34.8096 15.8444 34.5248 14.9512 34.5248H13.7412ZM29.1016 38.3666C29.1016 39.3418 28.9329 40.1986 28.5957 40.9369C28.2585 41.6706 27.7754 42.2357 27.1465 42.6322C26.5221 43.0241 25.8021 43.2201 24.9863 43.2201C24.1797 43.2201 23.4596 43.0241 22.8262 42.6322C22.1973 42.2357 21.7096 41.6729 21.3633 40.9437C21.0215 40.2146 20.8483 39.3737 20.8438 38.4213V37.8607C20.8438 36.89 21.0146 36.0332 21.3564 35.2904C21.7028 34.5476 22.1882 33.9802 22.8125 33.5883C23.4414 33.1918 24.1615 32.9935 24.9727 32.9935C25.7839 32.9935 26.5016 33.1895 27.126 33.5814C27.7549 33.9688 28.2402 34.5293 28.582 35.2631C28.9238 35.9922 29.097 36.8422 29.1016 37.8129V38.3666ZM27.3721 37.847C27.3721 36.7442 27.1624 35.8988 26.7432 35.3109C26.3285 34.723 25.7383 34.4291 24.9727 34.4291C24.2253 34.4291 23.6396 34.723 23.2158 35.3109C22.7965 35.8942 22.5824 36.7214 22.5732 37.7924V38.3666C22.5732 39.4603 22.7852 40.3057 23.209 40.9027C23.6374 41.4997 24.2298 41.7982 24.9863 41.7982C25.752 41.7982 26.3398 41.5066 26.75 40.9232C27.1647 40.3399 27.3721 39.4877 27.3721 38.3666V37.847ZM38.4189 39.8431C38.3187 40.905 37.9268 41.7344 37.2432 42.3314C36.5596 42.9239 35.6504 43.2201 34.5156 43.2201C33.7227 43.2201 33.0231 43.0332 32.417 42.6595C31.8154 42.2813 31.3506 41.7458 31.0225 41.0531C30.6943 40.3604 30.5234 39.556 30.5098 38.64V37.7103C30.5098 36.7715 30.6761 35.9444 31.0088 35.2289C31.3415 34.5134 31.8177 33.962 32.4375 33.5746C33.0618 33.1872 33.7819 32.9935 34.5977 32.9935C35.696 32.9935 36.5801 33.292 37.25 33.889C37.9199 34.486 38.3096 35.3291 38.4189 36.4183H36.6963C36.6143 35.7028 36.4046 35.1879 36.0674 34.8734C35.7347 34.5544 35.2448 34.3949 34.5977 34.3949C33.8457 34.3949 33.2669 34.6706 32.8613 35.222C32.4603 35.7689 32.2552 36.5733 32.2461 37.6351V38.517C32.2461 39.5925 32.4375 40.4128 32.8203 40.9779C33.2077 41.543 33.7728 41.8256 34.5156 41.8256C35.1947 41.8256 35.7051 41.6729 36.0469 41.3676C36.3887 41.0622 36.6051 40.5541 36.6963 39.8431H38.4189Z" fill="#2C3E50"/>
</svg>
