<svg width="49" height="60" viewBox="0 0 49 60" fill="none" xmlns="http://www.w3.org/2000/svg">
<path d="M7.11983 0.027222C5.45256 0.027222 3.85357 0.689544 2.67463 1.86848C1.49569 3.04742 0.833374 4.64641 0.833374 6.31368V52.9074C0.833374 54.5747 1.49569 56.1737 2.67463 57.3526C3.85357 58.5316 5.45256 59.1939 7.11983 59.1939H41.8803C43.5475 59.1939 45.1465 58.5316 46.3254 57.3526C47.5044 56.1737 48.1667 54.5747 48.1667 52.9074V21.3479C48.1663 20.4658 47.8157 19.6198 47.1919 18.9961L29.1994 1.00051C28.575 0.376913 27.7285 0.026822 26.846 0.027222H7.11983ZM4.53129 6.31368C4.53129 4.88481 5.69096 3.72514 7.11983 3.72514H24.5V16.6678C24.5 18.139 25.0844 19.5498 26.1247 20.5901C27.1649 21.6303 28.5758 22.2147 30.0469 22.2147H44.4688V52.9074C44.4688 53.594 44.1961 54.2524 43.7106 54.7378C43.2252 55.2233 42.5668 55.496 41.8803 55.496H7.11983C6.43331 55.496 5.7749 55.2233 5.28946 54.7378C4.80401 54.2524 4.53129 53.594 4.53129 52.9074V6.31368ZM41.4838 18.5168L35.5776 12.6106C34.1662 11.1992 33 10.033 31.5776 8.6106L28.198 5.23093L41.4838 18.5168Z" fill="#2C3E50"/>
<path d="M7.01172 42.1106V32.1575H9.95117C10.8307 32.1575 11.61 32.3534 12.2891 32.7454C12.9727 33.1373 13.5013 33.6933 13.875 34.4133C14.2487 35.1334 14.4355 35.9583 14.4355 36.8879V37.387C14.4355 38.3303 14.2464 39.1597 13.8682 39.8752C13.4945 40.5907 12.959 41.1422 12.2617 41.5295C11.569 41.9169 10.7738 42.1106 9.87598 42.1106H7.01172ZM8.74121 33.552V40.7297H9.86914C10.776 40.7297 11.471 40.4472 11.9541 39.8821C12.4417 39.3124 12.6901 38.4967 12.6992 37.4348V36.8811C12.6992 35.801 12.4645 34.9762 11.9951 34.4065C11.5257 33.8368 10.8444 33.552 9.95117 33.552H8.74121ZM24.1016 37.3938C24.1016 38.3691 23.9329 39.2258 23.5957 39.9641C23.2585 40.6978 22.7754 41.2629 22.1465 41.6594C21.5221 42.0514 20.8021 42.2473 19.9863 42.2473C19.1797 42.2473 18.4596 42.0514 17.8262 41.6594C17.1973 41.2629 16.7096 40.7001 16.3633 39.9709C16.0215 39.2418 15.8483 38.401 15.8438 37.4485V36.8879C15.8438 35.9172 16.0146 35.0605 16.3564 34.3176C16.7028 33.5748 17.1882 33.0074 17.8125 32.6155C18.4414 32.219 19.1615 32.0208 19.9727 32.0208C20.7839 32.0208 21.5016 32.2167 22.126 32.6086C22.7549 32.996 23.2402 33.5566 23.582 34.2903C23.9238 35.0194 24.097 35.8694 24.1016 36.8401V37.3938ZM22.3721 36.8743C22.3721 35.7714 22.1624 34.926 21.7432 34.3381C21.3285 33.7502 20.7383 33.4563 19.9727 33.4563C19.2253 33.4563 18.6396 33.7502 18.2158 34.3381C17.7965 34.9215 17.5824 35.7486 17.5732 36.8196V37.3938C17.5732 38.4875 17.7852 39.3329 18.209 39.9299C18.6374 40.5269 19.2298 40.8254 19.9863 40.8254C20.752 40.8254 21.3398 40.5338 21.75 39.9504C22.1647 39.3671 22.3721 38.5149 22.3721 37.3938V36.8743ZM33.4189 38.8704C33.3187 39.9322 32.9268 40.7616 32.2432 41.3586C31.5596 41.9511 30.6504 42.2473 29.5156 42.2473C28.7227 42.2473 28.0231 42.0605 27.417 41.6868C26.8154 41.3085 26.3506 40.773 26.0225 40.0803C25.6943 39.3876 25.5234 38.5833 25.5098 37.6672V36.7375C25.5098 35.7987 25.6761 34.9716 26.0088 34.2561C26.3415 33.5406 26.8177 32.9892 27.4375 32.6018C28.0618 32.2144 28.7819 32.0208 29.5977 32.0208C30.696 32.0208 31.5801 32.3193 32.25 32.9163C32.9199 33.5133 33.3096 34.3564 33.4189 35.4456H31.6963C31.6143 34.7301 31.4046 34.2151 31.0674 33.9006C30.7347 33.5816 30.2448 33.4221 29.5977 33.4221C28.8457 33.4221 28.2669 33.6978 27.8613 34.2493C27.4603 34.7961 27.2552 35.6005 27.2461 36.6624V37.5442C27.2461 38.6197 27.4375 39.44 27.8203 40.0051C28.2077 40.5702 28.7728 40.8528 29.5156 40.8528C30.1947 40.8528 30.7051 40.7001 31.0469 40.3948C31.3887 40.0894 31.6051 39.5813 31.6963 38.8704H33.4189ZM38.3955 35.7532L40.4873 32.1575H42.4834L39.4756 37.093L42.5518 42.1106H40.5352L38.3955 38.4602L36.249 42.1106H34.2393L37.3223 37.093L34.3076 32.1575H36.3037L38.3955 35.7532Z" fill="#2C3E50"/>
</svg>
