<svg width="47" height="61" viewBox="0 0 47 61" fill="none" xmlns="http://www.w3.org/2000/svg">
<path d="M47 52.5272V16.9022L29.375 0.0272217H7.83333C5.7558 0.0272217 3.76336 0.817398 2.29433 2.22392C0.825295 3.63044 0 5.5381 0 7.52722V52.5272C0 54.5163 0.825295 56.424 2.29433 57.8305C3.76336 59.237 5.7558 60.0272 7.83333 60.0272H39.1667C41.2442 60.0272 43.2366 59.237 44.7057 57.8305C46.1747 56.424 47 54.5163 47 52.5272ZM29.375 11.2772C29.375 12.7691 29.994 14.1998 31.0957 15.2547C32.1975 16.3096 33.6919 16.9022 35.25 16.9022H43.0833V52.5272C43.0833 53.5218 42.6707 54.4756 41.9362 55.1789C41.2017 55.8821 40.2054 56.2772 39.1667 56.2772H7.83333C6.79457 56.2772 5.79835 55.8821 5.06383 55.1789C4.32931 54.4756 3.91667 53.5218 3.91667 52.5272V7.52722C3.91667 6.53266 4.32931 5.57883 5.06383 4.87557C5.79835 4.17231 6.79457 3.77722 7.83333 3.77722H29.375V11.2772Z" fill="#2C3E50"/>
<path d="M24.0038 33.6681C23.2982 33.6681 22.6374 33.9403 22.1371 34.4379C21.6391 34.9355 21.363 35.5926 21.363 36.2944C21.363 36.9962 21.6391 37.6534 22.1371 38.1509C22.6374 38.6462 23.2982 38.9208 24.0038 38.9208C24.7095 38.9208 25.3703 38.6462 25.8706 38.1509C26.3686 37.6534 26.6447 36.9962 26.6447 36.2944C26.6447 35.5926 26.3686 34.9355 25.8706 34.4379C25.6262 34.193 25.3354 33.9988 25.0149 33.8667C24.6944 33.7345 24.3508 33.667 24.0038 33.6681ZM33.7341 39.1954L32.1907 37.8834C32.2638 37.4374 32.3016 36.9821 32.3016 36.5291C32.3016 36.0761 32.2638 35.6185 32.1907 35.1749L33.7341 33.8629C33.8507 33.7636 33.9342 33.6314 33.9734 33.4838C34.0126 33.3362 34.0057 33.1803 33.9536 33.0367L33.9324 32.9757C33.5076 31.7944 32.8711 30.6994 32.0538 29.7438L32.0113 29.6945C31.9121 29.5784 31.7798 29.495 31.6319 29.4552C31.4841 29.4154 31.3275 29.4211 31.183 29.4715L29.2666 30.1498C28.5586 29.5724 27.7704 29.1171 26.9161 28.8003L26.5456 26.8076C26.5176 26.6575 26.4444 26.5194 26.3356 26.4117C26.2269 26.3039 26.0877 26.2316 25.9367 26.2044L25.873 26.1927C24.6458 25.9721 23.3525 25.9721 22.1253 26.1927L22.0616 26.2044C21.9105 26.2316 21.7714 26.3039 21.6626 26.4117C21.5539 26.5194 21.4806 26.6575 21.4527 26.8076L21.0798 28.8097C20.2336 29.129 19.4452 29.5833 18.7458 30.1545L16.8153 29.4715C16.6708 29.4207 16.5141 29.4148 16.3662 29.4546C16.2182 29.4945 16.0859 29.5781 15.9869 29.6945L15.9444 29.7438C15.1286 30.7004 14.4923 31.7951 14.0659 32.9757L14.0446 33.0367C13.9384 33.3301 14.0258 33.6587 14.2641 33.8629L15.8264 35.189C15.7533 35.6302 15.7179 36.0808 15.7179 36.5268C15.7179 36.9774 15.7533 37.428 15.8264 37.8646L14.2688 39.1907C14.1522 39.29 14.0688 39.4222 14.0296 39.5697C13.9904 39.7173 13.9973 39.8733 14.0494 40.0168L14.0706 40.0779C14.4978 41.2584 15.1279 42.3498 15.9492 43.3098L15.9916 43.3591C16.0909 43.4751 16.2232 43.5585 16.371 43.5983C16.5189 43.6381 16.6754 43.6325 16.82 43.582L18.7505 42.899C19.4538 43.4741 20.2373 43.9294 21.0845 44.2439L21.4574 46.2459C21.4854 46.396 21.5586 46.5341 21.6673 46.6419C21.7761 46.7496 21.9152 46.8219 22.0663 46.8491L22.13 46.8609C23.3693 47.0827 24.6384 47.0827 25.8777 46.8609L25.9414 46.8491C26.0924 46.8219 26.2316 46.7496 26.3404 46.6419C26.4491 46.5341 26.5223 46.396 26.5503 46.2459L26.9208 44.2533C27.7751 43.9341 28.5634 43.4811 29.2714 42.9037L31.1877 43.582C31.3322 43.6329 31.4888 43.6388 31.6368 43.5989C31.7848 43.5591 31.917 43.4754 32.016 43.3591L32.0585 43.3098C32.8798 42.3451 33.5099 41.2584 33.9371 40.0779L33.9583 40.0168C34.0598 39.7258 33.9725 39.3996 33.7341 39.1954ZM24.0038 40.4205C21.7123 40.4205 19.855 38.5734 19.855 36.2944C19.855 34.0154 21.7123 32.1683 24.0038 32.1683C26.2954 32.1683 28.1527 34.0154 28.1527 36.2944C28.1527 38.5734 26.2954 40.4205 24.0038 40.4205Z" fill="#2C3E50"/>
<path d="M14.5013 23.5742C14.2544 23.5742 14.0231 23.6649 13.848 23.8308C13.6737 23.9966 13.577 24.2157 13.577 24.4496C13.577 24.6835 13.6737 24.9026 13.848 25.0685C14.0231 25.2335 14.2544 25.3251 14.5013 25.3251C14.7483 25.3251 14.9796 25.2335 15.1547 25.0685C15.329 24.9026 15.4256 24.6835 15.4256 24.4496C15.4256 24.2157 15.329 23.9966 15.1547 23.8308C15.0692 23.7491 14.9674 23.6844 14.8552 23.6404C14.7431 23.5963 14.6228 23.5738 14.5013 23.5742ZM17.9069 25.4166L17.3667 24.9793C17.3923 24.8306 17.4056 24.6788 17.4056 24.5279C17.4056 24.3769 17.3923 24.2243 17.3667 24.0764L17.9069 23.6391C17.9478 23.606 17.977 23.5619 17.9907 23.5128C18.0044 23.4636 18.002 23.4116 17.9838 23.3637L17.9763 23.3434C17.8277 22.9496 17.6049 22.5846 17.3188 22.2661L17.304 22.2496C17.2692 22.211 17.2229 22.1832 17.1712 22.1699C17.1194 22.1566 17.0646 22.1585 17.014 22.1753L16.3433 22.4014C16.0955 22.209 15.8196 22.0572 15.5206 21.9516L15.3909 21.2874C15.3812 21.2373 15.3555 21.1913 15.3175 21.1554C15.2794 21.1195 15.2307 21.0954 15.1778 21.0863L15.1555 21.0824C14.726 21.0088 14.2734 21.0088 13.8438 21.0824L13.8215 21.0863C13.7687 21.0954 13.72 21.1195 13.6819 21.1554C13.6438 21.1913 13.6182 21.2373 13.6084 21.2874L13.4779 21.9547C13.1817 22.0612 12.9058 22.2126 12.661 22.403L11.9853 22.1753C11.9348 22.1584 11.8799 22.1564 11.8282 22.1697C11.7764 22.183 11.7301 22.2109 11.6954 22.2496L11.6806 22.2661C11.395 22.585 11.1723 22.9499 11.0231 23.3434L11.0156 23.3637C10.9785 23.4615 11.009 23.571 11.0924 23.6391L11.6393 24.0811C11.6136 24.2282 11.6013 24.3784 11.6013 24.5271C11.6013 24.6773 11.6136 24.8275 11.6393 24.973L11.0941 25.415C11.0533 25.4481 11.0241 25.4922 11.0104 25.5414C10.9966 25.5906 10.999 25.6426 11.0173 25.6904L11.0247 25.7108C11.1742 26.1043 11.3948 26.4681 11.6822 26.7881L11.6971 26.8045C11.7318 26.8432 11.7781 26.871 11.8299 26.8843C11.8816 26.8975 11.9364 26.8956 11.987 26.8788L12.6627 26.6512C12.9088 26.8428 13.183 26.9946 13.4796 27.0994L13.6101 27.7668C13.6199 27.8168 13.6455 27.8629 13.6836 27.8988C13.7216 27.9347 13.7703 27.9588 13.8232 27.9679L13.8455 27.9718C14.2792 28.0457 14.7234 28.0457 15.1572 27.9718L15.1795 27.9679C15.2324 27.9588 15.2811 27.9347 15.3191 27.8988C15.3572 27.8629 15.3828 27.8168 15.3926 27.7668L15.5223 27.1026C15.8213 26.9962 16.0972 26.8452 16.345 26.6527L17.0157 26.8788C17.0663 26.8958 17.1211 26.8977 17.1729 26.8845C17.2247 26.8712 17.271 26.8433 17.3056 26.8045L17.3205 26.7881C17.6079 26.4665 17.8285 26.1043 17.978 25.7108L17.9854 25.6904C18.0209 25.5934 17.9904 25.4847 17.9069 25.4166ZM14.5013 25.825C13.6993 25.825 13.0492 25.2093 13.0492 24.4496C13.0492 23.69 13.6993 23.0742 14.5013 23.0742C15.3034 23.0742 15.9535 23.69 15.9535 24.4496C15.9535 25.2093 15.3034 25.825 14.5013 25.825Z" fill="#2C3E50"/>
</svg>
