<svg width="55" height="45" viewBox="0 0 55 45" fill="none" xmlns="http://www.w3.org/2000/svg">
<path d="M33.938 6.92308H47.9577C48.9362 6.92298 49.904 7.12338 50.7993 7.51151C51.6947 7.89963 52.4979 8.46696 53.1578 9.1773C53.8176 9.88764 54.3197 10.7254 54.6319 11.6371C54.9441 12.5489 55.0597 13.5146 54.9711 14.4727L52.7284 38.7035C52.5694 40.4235 51.7622 42.0231 50.4652 43.1881C49.1683 44.3531 47.4753 44.9993 45.7185 45H9.28206C7.52533 44.9993 5.8323 44.3531 4.53534 43.1881C3.23839 42.0231 2.43119 40.4235 2.2722 38.7035L0.0294717 14.4727C-0.120562 12.8692 0.305479 11.2648 1.23358 9.93808L1.09627 6.92308C1.09627 5.08696 1.83814 3.32605 3.15869 2.02772C4.47923 0.729394 6.27027 0 8.13781 0H21.0661C22.9335 0.000392105 24.7242 0.730043 26.0444 2.02846L28.9596 4.89462C30.2799 6.19303 32.0706 6.92269 33.938 6.92308ZM4.63816 7.33846C5.39161 7.06846 6.20138 6.92308 7.04637 6.92308H26.0444L23.5553 4.47577C22.8951 3.82656 21.9998 3.46173 21.0661 3.46154H8.13781C7.21552 3.46137 6.32998 3.81703 5.6716 4.45204C5.01322 5.08704 4.63456 5.9507 4.61704 6.85731L4.63816 7.33846Z" fill="currentColor"/>
</svg>
