<svg width="81" height="45" viewBox="0 0 81 45" fill="none" xmlns="http://www.w3.org/2000/svg">
<path d="M46.938 6.92308H60.9577C61.9362 6.92298 62.904 7.12338 63.7993 7.51151C64.6947 7.89963 65.4979 8.46696 66.1578 9.1773C66.8176 9.88764 67.3197 10.7254 67.6319 11.6371C67.9441 12.5489 68.0597 13.5146 67.9711 14.4727L65.7284 38.7035C65.5694 40.4236 64.7622 42.0231 63.4652 43.1881C62.1683 44.353 60.4752 44.9993 58.7185 45H22.2821C20.5253 44.9993 18.8323 44.353 17.5353 43.1881C16.2384 42.0231 15.4312 40.4236 15.2722 38.7035L13.0295 14.4727C12.8794 12.8692 13.3055 11.2648 14.2336 9.93808L14.0963 6.92308C14.0963 5.08696 14.8381 3.32605 16.1587 2.02772C17.4792 0.729394 19.2703 0 21.1378 0H34.0661C35.9335 0.000392105 37.7242 0.730043 39.0444 2.02846L41.9596 4.89462C43.2799 6.19303 45.0706 6.92269 46.938 6.92308V6.92308ZM17.6382 7.33846C18.3916 7.06846 19.2014 6.92308 20.0464 6.92308H39.0444L36.5553 4.47577C35.8951 3.82656 34.9998 3.46173 34.0661 3.46154H21.1378C20.2155 3.46137 19.33 3.81703 18.6716 4.45204C18.0132 5.08704 17.6346 5.9507 17.617 6.85731L17.6382 7.33846V7.33846Z" fill="#00BCD4"/>
<path d="M46.7273 25.3667H45.4546V23.1C45.4546 20.89 43.4818 19.1333 41 19.1333C38.5182 19.1333 36.5455 20.89 36.5455 23.1V25.3667H35.2727V23.1C35.2727 20.2667 37.8182 18 41 18C44.1818 18 46.7273 20.2667 46.7273 23.1V25.3667Z" fill="white"/>
<path d="M46.0909 35H35.9091C34.8273 35 34 34.2633 34 33.3V26.5C34 25.5366 34.8273 24.8 35.9091 24.8H46.0909C47.1727 24.8 48 25.5366 48 26.5V33.3C48 34.2633 47.1727 35 46.0909 35ZM35.9091 25.9333C35.5273 25.9333 35.2727 26.16 35.2727 26.5V33.3C35.2727 33.64 35.5273 33.8666 35.9091 33.8666H46.0909C46.4727 33.8666 46.7273 33.64 46.7273 33.3V26.5C46.7273 26.16 46.4727 25.9333 46.0909 25.9333H35.9091Z" fill="white"/>
<path d="M41 29.3333C41.7029 29.3333 42.2727 28.8259 42.2727 28.2C42.2727 27.5741 41.7029 27.0667 41 27.0667C40.2971 27.0667 39.7273 27.5741 39.7273 28.2C39.7273 28.8259 40.2971 29.3333 41 29.3333Z" fill="white"/>
<path d="M41.3182 28.2H40.6818L40.0454 31.6H41.9545L41.3182 28.2Z" fill="white"/>
</svg>
