<svg width="49" height="60" viewBox="0 0 49 60" fill="none" xmlns="http://www.w3.org/2000/svg">
<path d="M7.11983 3.42407e-07C5.45256 3.42407e-07 3.85357 0.662322 2.67463 1.84126C1.49569 3.0202 0.833374 4.61919 0.833374 6.28646V52.8802C0.833374 54.5475 1.49569 56.1465 2.67463 57.3254C3.85357 58.5043 5.45256 59.1667 7.11983 59.1667H41.8803C43.5475 59.1667 45.1465 58.5043 46.3254 57.3254C47.5044 56.1465 48.1667 54.5475 48.1667 52.8802V21.3207C48.1663 20.4385 47.8157 19.5926 47.1919 18.9688L29.1994 0.973292C28.575 0.349692 27.7285 -0.000399667 26.846 3.42407e-07H7.11983ZM4.53129 6.28646C4.53129 4.85758 5.69096 3.69792 7.11983 3.69792H24.5V16.6406C24.5 18.1117 25.0844 19.5226 26.1247 20.5629C27.1649 21.6031 28.5758 22.1875 30.0469 22.1875H44.4688V52.8802C44.4688 53.5667 44.1961 54.2251 43.7106 54.7106C43.2252 55.196 42.5668 55.4688 41.8803 55.4688H7.11983C6.43331 55.4688 5.7749 55.196 5.28946 54.7106C4.80401 54.2251 4.53129 53.5667 4.53129 52.8802V6.28646ZM41.4838 18.4896L35.5776 12.5834C34.1662 11.1719 33 10.0058 31.5776 8.58337L28.198 5.20371L41.4838 18.4896Z" fill="#2C3E50"/>
<path d="M8.74121 40.7025H13.2598V42.0834H7.01172V32.1302H8.74121V40.7025ZM22.0918 37.3666C22.0918 38.3418 21.9232 39.1986 21.5859 39.9369C21.2487 40.6706 20.7656 41.2357 20.1367 41.6322C19.5124 42.0241 18.7923 42.2201 17.9766 42.2201C17.1699 42.2201 16.4499 42.0241 15.8164 41.6322C15.1875 41.2357 14.6999 40.6729 14.3535 39.9437C14.0117 39.2146 13.8385 38.3737 13.834 37.4213V36.8607C13.834 35.89 14.0049 35.0332 14.3467 34.2904C14.693 33.5476 15.1784 32.9802 15.8027 32.5883C16.4316 32.1918 17.1517 31.9935 17.9629 31.9935C18.7741 31.9935 19.4919 32.1895 20.1162 32.5814C20.7451 32.9688 21.2305 33.5293 21.5723 34.2631C21.9141 34.9922 22.0872 35.8422 22.0918 36.8129V37.3666ZM20.3623 36.847C20.3623 35.7442 20.1527 34.8988 19.7334 34.3109C19.3187 33.723 18.7285 33.4291 17.9629 33.4291C17.2155 33.4291 16.6299 33.723 16.2061 34.3109C15.7868 34.8942 15.5726 35.7214 15.5635 36.7924V37.3666C15.5635 38.4603 15.7754 39.3057 16.1992 39.9027C16.6276 40.4997 17.2201 40.7982 17.9766 40.7982C18.7422 40.7982 19.3301 40.5066 19.7402 39.9232C20.1549 39.3399 20.3623 38.4877 20.3623 37.3666V36.847ZM31.4434 40.7914C31.0833 41.2608 30.5843 41.6163 29.9463 41.8578C29.3083 42.0993 28.5837 42.2201 27.7725 42.2201C26.9385 42.2201 26.2002 42.031 25.5576 41.6527C24.915 41.2745 24.4183 40.7344 24.0674 40.0326C23.721 39.3262 23.541 38.5036 23.5273 37.5648V36.7855C23.5273 35.2816 23.8874 34.1081 24.6074 33.265C25.3275 32.4174 26.3324 31.9935 27.6221 31.9935C28.7295 31.9935 29.609 32.267 30.2607 32.8138C30.9124 33.3607 31.3044 34.1491 31.4365 35.1791H29.7412C29.5498 33.9805 28.8548 33.3812 27.6562 33.3812C26.8815 33.3812 26.2913 33.6615 25.8857 34.222C25.4847 34.778 25.2773 35.5961 25.2637 36.6761V37.4418C25.2637 38.5173 25.4893 39.3536 25.9404 39.9506C26.3962 40.543 27.0273 40.8392 27.834 40.8392C28.7181 40.8392 29.347 40.6387 29.7207 40.2377V38.2894H27.6699V36.9769H31.4434V40.7914ZM41.2871 37.3666C41.2871 38.3418 41.1185 39.1986 40.7812 39.9369C40.444 40.6706 39.9609 41.2357 39.332 41.6322C38.7077 42.0241 37.9876 42.2201 37.1719 42.2201C36.3652 42.2201 35.6452 42.0241 35.0117 41.6322C34.3828 41.2357 33.8952 40.6729 33.5488 39.9437C33.207 39.2146 33.0339 38.3737 33.0293 37.4213V36.8607C33.0293 35.89 33.2002 35.0332 33.542 34.2904C33.8883 33.5476 34.3737 32.9802 34.998 32.5883C35.627 32.1918 36.347 31.9935 37.1582 31.9935C37.9694 31.9935 38.6872 32.1895 39.3115 32.5814C39.9404 32.9688 40.4258 33.5293 40.7676 34.2631C41.1094 34.9922 41.2826 35.8422 41.2871 36.8129V37.3666ZM39.5576 36.847C39.5576 35.7442 39.348 34.8988 38.9287 34.3109C38.514 33.723 37.9238 33.4291 37.1582 33.4291C36.4108 33.4291 35.8252 33.723 35.4014 34.3109C34.9821 34.8942 34.7679 35.7214 34.7588 36.7924V37.3666C34.7588 38.4603 34.9707 39.3057 35.3945 39.9027C35.8229 40.4997 36.4154 40.7982 37.1719 40.7982C37.9375 40.7982 38.5254 40.5066 38.9355 39.9232C39.3503 39.3399 39.5576 38.4877 39.5576 37.3666V36.847Z" fill="#2C3E50"/>
</svg>
