<svg width="47" height="61" viewBox="0 0 47 61" fill="none" xmlns="http://www.w3.org/2000/svg">
<path d="M47 52.5272V16.9022L29.375 0.0272217H7.83333C5.7558 0.0272217 3.76336 0.817398 2.29433 2.22392C0.825295 3.63044 0 5.5381 0 7.52722V52.5272C0 54.5163 0.825295 56.424 2.29433 57.8305C3.76336 59.237 5.7558 60.0272 7.83333 60.0272H39.1667C41.2442 60.0272 43.2366 59.237 44.7057 57.8305C46.1747 56.424 47 54.5163 47 52.5272ZM29.375 11.2772C29.375 12.7691 29.994 14.1998 31.0957 15.2547C32.1975 16.3096 33.6919 16.9022 35.25 16.9022H43.0833V52.5272C43.0833 53.5218 42.6707 54.4756 41.9362 55.1789C41.2017 55.8821 40.2054 56.2772 39.1667 56.2772H7.83333C6.79457 56.2772 5.79835 55.8821 5.06383 55.1789C4.32931 54.4756 3.91667 53.5218 3.91667 52.5272V7.52722C3.91667 6.53266 4.32931 5.57883 5.06383 4.87557C5.79835 4.17231 6.79457 3.77722 7.83333 3.77722H29.375V11.2772Z" fill="#2C3E50"/>
<path d="M21.5 30.7772C21.5 31.7718 21.1049 32.7256 20.4017 33.4289C19.6984 34.1321 18.7446 34.5272 17.75 34.5272C16.7554 34.5272 15.8016 34.1321 15.0983 33.4289C14.3951 32.7256 14 31.7718 14 30.7772C14 29.7827 14.3951 28.8288 15.0983 28.1256C15.8016 27.4223 16.7554 27.0272 17.75 27.0272C18.7446 27.0272 19.6984 27.4223 20.4017 28.1256C21.1049 28.8288 21.5 29.7827 21.5 30.7772Z" fill="#2C3E50"/>
<path d="M25.25 34.5272C24.2554 34.5272 23.3016 34.1321 22.5983 33.4289C21.8951 32.7256 21.5 31.7718 21.5 30.7772C21.5 29.7827 21.8951 28.8288 22.5983 28.1256C23.3016 27.4223 24.2554 27.0272 25.25 27.0272C26.2446 27.0272 27.1984 27.4223 27.9017 28.1256C28.6049 28.8288 29 29.7827 29 30.7772C29 31.7718 28.6049 32.7256 27.9017 33.4289C27.1984 34.1321 26.2446 34.5272 25.25 34.5272Z" fill="#2C3E50"/>
<path d="M25.25 34.5272H25.875C26.4814 34.5272 27.0671 34.7475 27.5231 35.1471C27.9791 35.5468 28.2743 36.0986 28.3538 36.6997L32.2413 34.9722C32.4315 34.8874 32.64 34.8516 32.8477 34.8678C33.0554 34.8841 33.2557 34.952 33.4304 35.0654C33.6052 35.1788 33.7488 35.3341 33.8483 35.5171C33.9478 35.7002 33.9999 35.9052 34 36.1135V45.441C33.9998 45.6491 33.9477 45.8539 33.8483 46.0368C33.7488 46.2197 33.6053 46.3749 33.4308 46.4882C33.2562 46.6016 33.0561 46.6696 32.8486 46.686C32.641 46.7024 32.4327 46.6667 32.2425 46.5822L28.3538 44.8547C28.2743 45.4559 27.9791 46.0076 27.5231 46.4073C27.0671 46.807 26.4814 47.0273 25.875 47.0272H16.5C15.837 47.0272 15.2011 46.7638 14.7322 46.295C14.2634 45.8261 14 45.1903 14 44.5272V37.0272C14 36.3642 14.2634 35.7283 14.7322 35.2595C15.2011 34.7906 15.837 34.5272 16.5 34.5272H25.25Z" fill="#2C3E50"/>
</svg>
