<svg width="48" height="60" viewBox="0 0 48 60" fill="none" xmlns="http://www.w3.org/2000/svg">
<path d="M6.74219 3.47229e-07C5.08666 3.47229e-07 3.49893 0.67165 2.32829 1.86719C1.15766 3.06274 0.5 4.68425 0.5 6.375V53.625C0.5 55.3158 1.15766 56.9373 2.32829 58.1328C3.49893 59.3284 5.08666 60 6.74219 60H41.2578C42.9133 60 44.5011 59.3284 45.6717 58.1328C46.8423 56.9373 47.5 55.3158 47.5 53.625V21.621C47.4996 20.7264 47.1515 19.8686 46.5321 19.236L28.6662 0.987C28.0462 0.354617 27.2057 -0.000405296 26.3294 3.47229e-07H6.74219ZM4.17188 6.375C4.17188 4.926 5.32337 3.75 6.74219 3.75H24V16.875C24 18.3668 24.5803 19.7976 25.6132 20.8525C26.6461 21.9074 28.0471 22.5 29.5078 22.5H43.8281V53.625C43.8281 54.3212 43.5573 54.9889 43.0753 55.4812C42.5933 55.9734 41.9395 56.25 41.2578 56.25H6.74219C6.0605 56.25 5.40673 55.9734 4.9247 55.4812C4.44267 54.9889 4.17188 54.3212 4.17188 53.625V6.375ZM40.8642 18.75L35.5 13.2717C34.1594 11.9025 34.1287 11.8712 32 9.69721L27.6719 5.277L40.8642 18.75Z" fill="#2C3E50"/>
<path d="M12.2539 33.0469L15.125 40.6758L17.9893 33.0469H20.2246V43H18.502V39.7188L18.6729 35.3301L15.7334 43H14.4961L11.5635 35.3369L11.7344 39.7188V43H10.0117V33.0469H12.2539ZM24.0049 39.3018V43H22.2754V33.0469H26.083C27.195 33.0469 28.0768 33.3363 28.7285 33.915C29.3848 34.4938 29.7129 35.2594 29.7129 36.2119C29.7129 37.1872 29.3916 37.946 28.749 38.4883C28.111 39.0306 27.2155 39.3018 26.0625 39.3018H24.0049ZM24.0049 37.9141H26.083C26.6982 37.9141 27.1676 37.7705 27.4912 37.4834C27.8148 37.1917 27.9766 36.7725 27.9766 36.2256C27.9766 35.6878 27.8125 35.2594 27.4844 34.9404C27.1562 34.6169 26.7051 34.4505 26.1309 34.4414H24.0049V37.9141ZM32.8848 37.2646H33.8965C34.4069 37.2601 34.8102 37.1279 35.1064 36.8682C35.4072 36.6084 35.5576 36.2324 35.5576 35.7402C35.5576 35.2663 35.4323 34.8994 35.1816 34.6396C34.9355 34.3753 34.5573 34.2432 34.0469 34.2432C33.6003 34.2432 33.2334 34.373 32.9463 34.6328C32.6592 34.888 32.5156 35.223 32.5156 35.6377H30.8545C30.8545 35.1273 30.9889 34.6624 31.2578 34.2432C31.5312 33.8239 31.9095 33.498 32.3926 33.2656C32.8802 33.0286 33.4248 32.9102 34.0264 32.9102C35.0199 32.9102 35.7992 33.1608 36.3643 33.6621C36.9339 34.1589 37.2188 34.8516 37.2188 35.7402C37.2188 36.1868 37.0752 36.6084 36.7881 37.0049C36.5055 37.3968 36.1387 37.693 35.6875 37.8936C36.2344 38.0804 36.6491 38.3743 36.9316 38.7754C37.2188 39.1764 37.3623 39.6549 37.3623 40.2109C37.3623 41.1042 37.0547 41.8151 36.4395 42.3438C35.8288 42.8724 35.0244 43.1367 34.0264 43.1367C33.0693 43.1367 32.2855 42.8815 31.6748 42.3711C31.0641 41.8607 30.7588 41.1816 30.7588 40.334H32.4199C32.4199 40.7715 32.5658 41.127 32.8574 41.4004C33.1536 41.6738 33.5501 41.8105 34.0469 41.8105C34.5618 41.8105 34.9674 41.6738 35.2637 41.4004C35.5599 41.127 35.708 40.7305 35.708 40.2109C35.708 39.6868 35.5531 39.2835 35.2432 39.001C34.9333 38.7184 34.473 38.5771 33.8623 38.5771H32.8848V37.2646Z" fill="#2C3E50"/>
</svg>
