<svg width="47" height="61" viewBox="0 0 47 61" fill="currentColor" xmlns="http://www.w3.org/2000/svg">
<path d="M47 52.5272V16.9022L29.375 0.0272217H7.83333C5.7558 0.0272217 3.76336 0.817398 2.29433 2.22392C0.825295 3.63044 0 5.5381 0 7.52722V52.5272C0 54.5163 0.825295 56.424 2.29433 57.8305C3.76336 59.237 5.7558 60.0272 7.83333 60.0272H39.1667C41.2442 60.0272 43.2366 59.237 44.7057 57.8305C46.1747 56.424 47 54.5163 47 52.5272ZM29.375 11.2772C29.375 12.7691 29.994 14.1998 31.0957 15.2547C32.1975 16.3096 33.6919 16.9022 35.25 16.9022H43.0833V52.5272C43.0833 53.5218 42.6707 54.4756 41.9362 55.1789C41.2017 55.8821 40.2054 56.2772 39.1667 56.2772H7.83333C6.79457 56.2772 5.79835 55.8821 5.06383 55.1789C4.32931 54.4756 3.91667 53.5218 3.91667 52.5272V7.52722C3.91667 6.53266 4.32931 5.57883 5.06383 4.87557C5.79835 4.17231 6.79457 3.77722 7.83333 3.77722H29.375V11.2772Z" />
<path d="M24 27.0272C18.4777 27.0272 14 31.5049 14 37.0272C14 42.5495 18.4777 47.0272 24 47.0272C29.5223 47.0272 34 42.5495 34 37.0272C34 31.5049 29.5223 27.0272 24 27.0272ZM27.2165 37.1812L22.3415 40.7281C22.3148 40.7473 22.2833 40.7588 22.2505 40.7613C22.2177 40.7637 22.1848 40.7571 22.1555 40.7421C22.1262 40.7271 22.1016 40.7043 22.0844 40.6763C22.0672 40.6482 22.0581 40.6159 22.058 40.583V33.4937C22.0579 33.4608 22.067 33.4284 22.0841 33.4002C22.1013 33.3721 22.1259 33.3492 22.1552 33.3342C22.1846 33.3192 22.2175 33.3126 22.2504 33.3151C22.2833 33.3177 22.3148 33.3293 22.3415 33.3487L27.2165 36.8933C27.2395 36.9096 27.2583 36.9312 27.2713 36.9562C27.2843 36.9813 27.291 37.0091 27.291 37.0373C27.291 37.0655 27.2843 37.0933 27.2713 37.1183C27.2583 37.1434 27.2395 37.165 27.2165 37.1812Z" />
</svg>
