<svg width="49" height="60" viewBox="0 0 49 60" fill="currentColor" xmlns="http://www.w3.org/2000/svg">
<path d="M7.11983 0.027222C5.45256 0.027222 3.85357 0.689544 2.67463 1.86848C1.49569 3.04742 0.833374 4.64641 0.833374 6.31368V52.9074C0.833374 54.5747 1.49569 56.1737 2.67463 57.3526C3.85357 58.5316 5.45256 59.1939 7.11983 59.1939H41.8803C43.5475 59.1939 45.1465 58.5316 46.3254 57.3526C47.5044 56.1737 48.1667 54.5747 48.1667 52.9074V21.3479C48.1663 20.4658 47.8157 19.6198 47.1919 18.9961L29.1994 1.00051C28.575 0.376913 27.7285 0.026822 26.846 0.027222H7.11983ZM4.53129 6.31368C4.53129 4.88481 5.69096 3.72514 7.11983 3.72514H24.5V16.6678C24.5 18.139 25.0844 19.5498 26.1247 20.5901C27.1649 21.6303 28.5758 22.2147 30.0469 22.2147H44.4688V52.9074C44.4688 53.594 44.1961 54.2524 43.7106 54.7378C43.2252 55.2233 42.5668 55.496 41.8803 55.496H7.11983C6.43331 55.496 5.7749 55.2233 5.28946 54.7378C4.80401 54.2524 4.53129 53.594 4.53129 52.9074V6.31368ZM41.4838 18.5168L35.5776 12.6106C34.3643 11.3973 33.9298 10.9628 33.0776 10.1106L28.198 5.23093L41.4838 18.5168Z" />
<line x1="16.4862" y1="38.1106" x2="32.4862" y2="38.1106" stroke="#7E82A2" stroke-width="2"/>
<line x1="24" y1="46.1383" x2="24" y2="30.1383" stroke="#7E82A2" stroke-width="2"/>
</svg>
