<svg width="47" height="60" viewBox="0 0 47 60" fill="none" xmlns="http://www.w3.org/2000/svg">
<path d="M47 52.5V16.875L29.375 0H7.83333C5.7558 0 3.76336 0.790176 2.29433 2.1967C0.825295 3.60322 0 5.51088 0 7.5V52.5C0 54.4891 0.825295 56.3968 2.29433 57.8033C3.76336 59.2098 5.7558 60 7.83333 60H39.1667C41.2442 60 43.2366 59.2098 44.7057 57.8033C46.1747 56.3968 47 54.4891 47 52.5ZM29.375 11.25C29.375 12.7418 29.994 14.1726 31.0957 15.2275C32.1975 16.2824 33.6919 16.875 35.25 16.875H43.0833V52.5C43.0833 53.4946 42.6707 54.4484 41.9362 55.1516C41.2017 55.8549 40.2054 56.25 39.1667 56.25H7.83333C6.79457 56.25 5.79835 55.8549 5.06383 55.1516C4.32931 54.4484 3.91667 53.4946 3.91667 52.5V7.5C3.91667 6.50544 4.32931 5.55161 5.06383 4.84835C5.79835 4.14509 6.79457 3.75 7.83333 3.75H29.375V11.25Z" fill="#2C3E50"/>
<path d="M10.1951 52.8264C9.4317 52.534 8.81666 51.9694 8.47959 51.2514C7.71584 49.7964 7.97042 48.3414 8.79292 47.1189C9.56842 45.9676 10.8531 44.9889 12.3062 44.1676C14.1468 43.1681 16.0924 42.3574 18.1107 41.7489C19.6781 39.0511 21.0673 36.2619 22.2702 33.3976C21.551 31.833 20.9871 30.2071 20.586 28.5414C20.2492 27.0414 20.1199 25.5564 20.4058 24.2814C20.6996 22.9539 21.479 21.7614 22.9517 21.1951C23.7037 20.9064 24.5183 20.7451 25.3095 20.9064C25.7075 20.9875 26.0816 21.1524 26.4047 21.3892C26.7279 21.6259 26.9919 21.9285 27.1778 22.2751C27.5224 22.8901 27.6478 23.6101 27.6752 24.2926C27.7026 24.9976 27.6282 25.7776 27.4911 26.5951C27.1621 28.5076 26.4336 30.8476 25.4544 33.3226C26.535 35.5352 27.8195 37.6511 29.2928 39.6451C31.0361 39.5133 32.7895 39.5762 34.5176 39.8326C35.9433 40.0801 37.3924 40.5639 38.2776 41.5764C38.7476 42.1164 39.0335 42.7764 39.0609 43.5189C39.0883 44.2389 38.8768 44.9514 38.5204 45.6301C38.2117 46.2591 37.733 46.7977 37.1339 47.1901C36.5417 47.56 35.8426 47.7411 35.1364 47.7076C33.84 47.6551 32.5749 46.9726 31.4822 46.1439C30.1534 45.092 28.9561 43.8965 27.9141 42.5814C25.2655 42.8692 22.6482 43.3786 20.0925 44.1039C18.9221 46.0912 17.5861 47.9849 16.0975 49.7664C14.9538 51.0789 13.7123 52.2264 12.4668 52.7176C11.7511 53.0276 10.9394 53.0664 10.1951 52.8264ZM15.5962 45.6976C14.946 45.9826 14.3428 46.2826 13.7984 46.5901C12.5138 47.3176 11.6795 48.0264 11.2643 48.6414C10.8962 49.1851 10.8883 49.5789 11.1077 49.9951C11.1468 50.0776 11.186 50.1301 11.2095 50.1601C11.2562 50.1482 11.302 50.1332 11.3466 50.1151C11.8832 49.9051 12.737 49.2339 13.8337 47.9701C14.4574 47.239 15.0455 46.4807 15.5962 45.6976ZM22.0195 40.7101C23.3274 40.4179 24.6471 40.1764 25.9753 39.9864C25.2622 38.9415 24.5957 37.868 23.9778 36.7689C23.3635 38.0986 22.7105 39.4116 22.0195 40.7064V40.7101ZM31.5997 42.3976C32.1872 43.0089 32.759 43.5226 33.3034 43.9351C34.2434 44.6476 34.8975 44.8839 35.2539 44.8951C35.3493 44.9071 35.4462 44.8872 35.5281 44.8389C35.691 44.7157 35.8179 44.5542 35.8963 44.3701C36.0355 44.1417 36.1148 43.8843 36.1273 43.6201C36.1251 43.532 36.0888 43.4479 36.0255 43.3839C35.8218 43.1514 35.2422 42.8139 33.9967 42.6001C33.2044 42.4733 32.4029 42.4068 31.5997 42.4014V42.3976ZM23.8055 29.2501C24.1351 28.2321 24.3968 27.195 24.5888 26.1451C24.7103 25.4401 24.7573 24.8589 24.7377 24.4014C24.7388 24.149 24.6964 23.8981 24.6123 23.6589C24.4164 23.6821 24.2251 23.7326 24.0444 23.8089C23.7037 23.9401 23.4256 24.2064 23.2768 24.8701C23.1201 25.5901 23.1593 26.6289 23.4569 27.9526C23.5509 28.3689 23.6684 28.8039 23.8094 29.2501H23.8055Z" fill="#2C3E50"/>
</svg>
