<svg width="47" height="60" viewBox="0 0 47 60" fill="none" xmlns="http://www.w3.org/2000/svg">
<path d="M19.5833 20.625C18.5446 20.625 17.5483 21.0201 16.8138 21.7234C16.0793 22.4266 15.6667 23.3804 15.6667 24.375V48.75C15.6667 49.2473 15.873 49.7242 16.2402 50.0758C16.6075 50.4275 17.1056 50.625 17.625 50.625C18.1444 50.625 18.6425 50.4275 19.0097 50.0758C19.377 49.7242 19.5833 49.2473 19.5833 48.75V41.25H24.2363C27.0929 41.25 29.8325 40.1635 31.8525 38.2295C33.8724 36.2956 35.0072 33.6725 35.0072 30.9375C35.0072 28.2025 33.8724 25.5794 31.8525 23.6455C29.8325 21.7115 27.0929 20.625 24.2363 20.625H19.5833ZM24.2363 37.5H19.5833V24.375H24.2363C25.1364 24.375 26.0277 24.5447 26.8593 24.8745C27.6909 25.2043 28.4465 25.6877 29.083 26.2971C29.7194 26.9065 30.2243 27.6299 30.5687 28.4261C30.9132 29.2223 31.0905 30.0757 31.0905 30.9375C31.0905 31.7993 30.9132 32.6527 30.5687 33.4489C30.2243 34.2451 29.7194 34.9685 29.083 35.5779C28.4465 36.1873 27.6909 36.6707 26.8593 37.0005C26.0277 37.3303 25.1364 37.5 24.2363 37.5Z" fill="#2C3E50"/>
<path d="M47 16.875V52.5C47 54.4891 46.1747 56.3968 44.7057 57.8033C43.2366 59.2098 41.2442 60 39.1667 60H7.83333C5.7558 60 3.76336 59.2098 2.29433 57.8033C0.825295 56.3968 0 54.4891 0 52.5V7.5C0 5.51088 0.825295 3.60322 2.29433 2.1967C3.76336 0.790176 5.7558 0 7.83333 0L29.375 0L47 16.875ZM35.25 16.875C33.6919 16.875 32.1975 16.2824 31.0957 15.2275C29.994 14.1726 29.375 12.7418 29.375 11.25V3.75H7.83333C6.79457 3.75 5.79835 4.14509 5.06383 4.84835C4.32931 5.55161 3.91667 6.50544 3.91667 7.5V52.5C3.91667 53.4946 4.32931 54.4484 5.06383 55.1516C5.79835 55.8549 6.79457 56.25 7.83333 56.25H39.1667C40.2054 56.25 41.2017 55.8549 41.9362 55.1516C42.6707 54.4484 43.0833 53.4946 43.0833 52.5V16.875H35.25Z" fill="#2C3E50"/>
</svg>
