<svg width="49" height="61" viewBox="0 0 49 61" fill="none" xmlns="http://www.w3.org/2000/svg">
<path d="M48 52.5272V16.9022L30.375 0.0272217H8.83333C6.7558 0.0272217 4.76336 0.817398 3.29433 2.22392C1.82529 3.63044 1 5.5381 1 7.52722V52.5272C1 54.5163 1.82529 56.424 3.29433 57.8305C4.76336 59.237 6.7558 60.0272 8.83333 60.0272H40.1667C42.2442 60.0272 44.2366 59.237 45.7057 57.8305C47.1747 56.424 48 54.5163 48 52.5272ZM30.375 11.2772C30.375 12.7691 30.994 14.1998 32.0957 15.2547C33.1975 16.3096 34.6919 16.9022 36.25 16.9022H44.0833V52.5272C44.0833 53.5218 43.6707 54.4756 42.9362 55.1789C42.2017 55.8821 41.2054 56.2772 40.1667 56.2772H8.83333C7.79457 56.2772 6.79835 55.8821 6.06383 55.1789C5.32931 54.4756 4.91667 53.5218 4.91667 52.5272V7.52722C4.91667 6.53266 5.32931 5.57883 6.06383 4.87557C6.79835 4.17231 7.79457 3.77722 8.83333 3.77722H30.375V11.2772Z" fill="#2C3E50"/>
<rect y="31.0272" width="49" height="15" rx="2" fill="#2C3E50"/>
<path d="M15.6689 40.1923H13.7412V44.0272H12.0117V34.0741H15.5117C16.6602 34.0741 17.5465 34.3316 18.1709 34.8466C18.7952 35.3615 19.1074 36.1066 19.1074 37.0819C19.1074 37.7473 18.9456 38.3055 18.6221 38.7567C18.3031 39.2033 17.8564 39.5474 17.2822 39.7889L19.5176 43.9384V44.0272H17.665L15.6689 40.1923ZM13.7412 38.8046H15.5186C16.1019 38.8046 16.5576 38.6587 16.8857 38.3671C17.2139 38.0708 17.3779 37.6675 17.3779 37.1571C17.3779 36.6239 17.2253 36.2115 16.9199 35.9198C16.6191 35.6281 16.168 35.4777 15.5664 35.4686H13.7412V38.8046ZM26.3193 41.7098H22.4639L21.6572 44.0272H19.8594L23.6191 34.0741H25.1709L28.9375 44.0272H27.1328L26.3193 41.7098ZM22.9492 40.3153H25.834L24.3916 36.1864L22.9492 40.3153ZM33.7295 40.1923H31.8018V44.0272H30.0723V34.0741H33.5723C34.7207 34.0741 35.6071 34.3316 36.2314 34.8466C36.8558 35.3615 37.168 36.1066 37.168 37.0819C37.168 37.7473 37.0062 38.3055 36.6826 38.7567C36.3636 39.2033 35.917 39.5474 35.3428 39.7889L37.5781 43.9384V44.0272H35.7256L33.7295 40.1923ZM31.8018 38.8046H33.5791C34.1624 38.8046 34.6182 38.6587 34.9463 38.3671C35.2744 38.0708 35.4385 37.6675 35.4385 37.1571C35.4385 36.6239 35.2858 36.2115 34.9805 35.9198C34.6797 35.6281 34.2285 35.4777 33.627 35.4686H31.8018V38.8046Z" fill="white"/>
</svg>
