<svg width="48" height="61" viewBox="0 0 48 61" fill="currentColor" xmlns="http://www.w3.org/2000/svg">
<path d="M6.74219 0.027222C5.08666 0.027222 3.49893 0.698872 2.32829 1.89442C1.15766 3.08996 0.5 4.71147 0.5 6.40222V53.6522C0.5 55.343 1.15766 56.9645 2.32829 58.16C3.49893 59.3556 5.08666 60.0272 6.74219 60.0272H41.2578C42.9133 60.0272 44.5011 59.3556 45.6717 58.16C46.8423 56.9645 47.5 55.343 47.5 53.6522V21.6482C47.4996 20.7536 47.1515 19.8958 46.5321 19.2632L28.6662 1.01422C28.0462 0.381839 27.2057 0.0268164 26.3294 0.027222H6.74219ZM4.17188 6.40222C4.17188 4.95322 5.32337 3.77722 6.74219 3.77722H24V16.9022C24 18.3941 24.5803 19.8248 25.6132 20.8797C26.6461 21.9346 28.0471 22.5272 29.5078 22.5272H43.8281V53.6522C43.8281 54.3484 43.5573 55.0161 43.0753 55.5084C42.5933 56.0007 41.9395 56.2772 41.2578 56.2772H6.74219C6.0605 56.2772 5.40673 56.0007 4.9247 55.5084C4.44267 55.0161 4.17188 54.3484 4.17188 53.6522V6.40222ZM40.8642 18.7772L35.5 13.2989C34.1594 11.9297 34.1287 11.8985 32 9.72444L27.6719 5.30422L40.8642 18.7772Z" />
<path d="M15.6689 39.1923H13.7412V43.0272H12.0117V33.0741H15.5117C16.6602 33.0741 17.5465 33.3316 18.1709 33.8466C18.7952 34.3615 19.1074 35.1066 19.1074 36.0819C19.1074 36.7473 18.9456 37.3055 18.6221 37.7567C18.3031 38.2033 17.8564 38.5474 17.2822 38.7889L19.5176 42.9384V43.0272H17.665L15.6689 39.1923ZM13.7412 37.8046H15.5186C16.1019 37.8046 16.5576 37.6587 16.8857 37.3671C17.2139 37.0708 17.3779 36.6675 17.3779 36.1571C17.3779 35.6239 17.2253 35.2115 16.9199 34.9198C16.6191 34.6281 16.168 34.4777 15.5664 34.4686H13.7412V37.8046ZM27.5977 34.4686H24.4941V43.0272H22.7783V34.4686H19.7021V33.0741H27.5977V34.4686ZM34.6455 38.8094H30.6396V43.0272H28.9102V33.0741H35.2334V34.4686H30.6396V37.4286H34.6455V38.8094Z" />
</svg>
