<svg width="48" height="61" viewBox="0 0 48 61" fill="none" xmlns="http://www.w3.org/2000/svg">
<path d="M6.74219 0.027222C5.08666 0.027222 3.49893 0.698872 2.32829 1.89442C1.15766 3.08996 0.5 4.71147 0.5 6.40222V53.6522C0.5 55.343 1.15766 56.9645 2.32829 58.16C3.49893 59.3556 5.08666 60.0272 6.74219 60.0272H41.2578C42.9133 60.0272 44.5011 59.3556 45.6717 58.16C46.8423 56.9645 47.5 55.343 47.5 53.6522V21.6482C47.4996 20.7536 47.1515 19.8958 46.5321 19.2632L28.6662 1.01422C28.0462 0.381839 27.2057 0.0268164 26.3294 0.027222H6.74219ZM4.17188 6.40222C4.17188 4.95322 5.32337 3.77722 6.74219 3.77722H24V16.9022C24 18.3941 24.5803 19.8248 25.6132 20.8797C26.6461 21.9346 28.0471 22.5272 29.5078 22.5272H43.8281V53.6522C43.8281 54.3484 43.5573 55.0161 43.0753 55.5084C42.5933 56.0007 41.9395 56.2772 41.2578 56.2772H6.74219C6.0605 56.2772 5.40673 56.0007 4.9247 55.5084C4.44267 55.0161 4.17188 54.3484 4.17188 53.6522V6.40222ZM40.8642 18.7772L35.5 13.2989C34.1594 11.9297 34.1287 11.8985 32 9.72444L27.6719 5.30422L40.8642 18.7772Z" fill="#2C3E50"/>
<rect x="9" y="26.0272" width="30" height="1" rx="0.5" fill="#2C3E50"/>
<rect x="9" y="28.0272" width="30" height="1" rx="0.5" fill="#2C3E50"/>
<rect x="9" y="30.0272" width="30" height="1" rx="0.5" fill="#2C3E50"/>
<path d="M19.2031 36.4686H16.0996V45.0272H14.3838V36.4686H11.3076V35.0741H19.2031V36.4686ZM23.9404 38.6698L26.0322 35.0741H28.0283L25.0205 40.0096L28.0967 45.0272H26.0801L23.9404 41.3768L21.7939 45.0272H19.7842L22.8672 40.0096L19.8525 35.0741H21.8486L23.9404 38.6698ZM36.5664 36.4686H33.4629V45.0272H31.7471V36.4686H28.6709V35.0741H36.5664V36.4686Z" fill="#2C3E50"/>
</svg>
