<svg width="47" height="60" viewBox="0 0 47 60" fill="currentColor" xmlns="http://www.w3.org/2000/svg">
<path d="M15.2124 25.0498C15.0501 24.854 14.8485 24.6912 14.6195 24.571C14.3905 24.4508 14.1387 24.3757 13.879 24.3501C13.6192 24.3245 13.3567 24.3489 13.107 24.4218C12.8572 24.4947 12.6252 24.6148 12.4246 24.7748C12.224 24.9349 12.0588 25.1317 11.9389 25.3538C11.8189 25.5759 11.7465 25.8187 11.726 26.0679C11.7055 26.3171 11.7372 26.5678 11.8194 26.8051C11.9015 27.0424 12.0324 27.2616 12.2044 27.4498L20.9503 37.4998L12.2044 47.5498C11.8866 47.9333 11.738 48.4205 11.7904 48.9074C11.8428 49.3943 12.092 49.8423 12.4848 50.1557C12.8775 50.469 13.3827 50.6229 13.8923 50.5844C14.402 50.546 14.8757 50.3182 15.2124 49.9498L23.5 40.4286L31.7877 49.9536C32.1206 50.3355 32.5984 50.5751 33.1158 50.6198C33.3721 50.6419 33.6303 50.6155 33.8759 50.542C34.1214 50.4686 34.3495 50.3495 34.547 50.1917C34.7445 50.0339 34.9076 49.8403 35.027 49.6221C35.1464 49.4039 35.2197 49.1654 35.2428 48.9201C35.2659 48.6747 35.2383 48.4275 35.1616 48.1924C35.0849 47.9573 34.9605 47.7389 34.7957 47.5498L26.0498 37.4998L34.7957 27.4498C35.1135 27.0664 35.262 26.5791 35.2096 26.0922C35.1572 25.6053 34.908 25.1573 34.5153 24.844C34.1226 24.5306 33.6174 24.3767 33.1077 24.4152C32.5981 24.4536 32.1243 24.6814 31.7877 25.0498L23.5 34.5711L15.2124 25.0461V25.0498Z" />
<path d="M47 52.5V16.875L29.375 0H7.83333C5.7558 0 3.76336 0.790176 2.29433 2.1967C0.825295 3.60322 0 5.51088 0 7.5V52.5C0 54.4891 0.825295 56.3968 2.29433 57.8033C3.76336 59.2098 5.7558 60 7.83333 60H39.1667C41.2442 60 43.2366 59.2098 44.7057 57.8033C46.1747 56.3968 47 54.4891 47 52.5ZM29.375 11.25C29.375 12.7418 29.994 14.1726 31.0957 15.2275C32.1975 16.2824 33.6919 16.875 35.25 16.875H43.0833V52.5C43.0833 53.4946 42.6707 54.4484 41.9362 55.1516C41.2017 55.8549 40.2054 56.25 39.1667 56.25H7.83333C6.79457 56.25 5.79835 55.8549 5.06383 55.1516C4.32931 54.4484 3.91667 53.4946 3.91667 52.5V7.5C3.91667 6.50544 4.32931 5.55161 5.06383 4.84835C5.79835 4.14509 6.79457 3.75 7.83333 3.75H29.375V11.25Z" />
</svg>
