<svg width="47" height="61" viewBox="0 0 47 61" fill="currentColor" xmlns="http://www.w3.org/2000/svg">
<path d="M15.2124 25.077C15.0501 24.8812 14.8485 24.7184 14.6195 24.5982C14.3905 24.4781 14.1387 24.403 13.879 24.3773C13.6192 24.3517 13.3567 24.3761 13.107 24.449C12.8572 24.522 12.6252 24.642 12.4246 24.802C12.224 24.9621 12.0588 25.159 11.9389 25.381C11.8189 25.6031 11.7465 25.8459 11.726 26.0951C11.7055 26.3444 11.7372 26.595 11.8194 26.8323C11.9015 27.0697 12.0324 27.2889 12.2044 27.477L20.9503 37.527L12.2044 47.577C11.8866 47.9605 11.738 48.4477 11.7904 48.9346C11.8428 49.4215 12.092 49.8695 12.4848 50.1829C12.8775 50.4962 13.3827 50.6501 13.8923 50.6117C14.402 50.5732 14.8757 50.3454 15.2124 49.977L23.5 40.4558L31.7877 49.9808C32.1206 50.3627 32.5984 50.6023 33.1158 50.647C33.3721 50.6691 33.6303 50.6427 33.8759 50.5692C34.1214 50.4958 34.3495 50.3767 34.547 50.2189C34.7445 50.0611 34.9076 49.8675 35.027 49.6494C35.1464 49.4312 35.2197 49.1926 35.2428 48.9473C35.2659 48.702 35.2383 48.4547 35.1616 48.2196C35.0849 47.9845 34.9605 47.7661 34.7957 47.577L26.0498 37.527L34.7957 27.477C35.1135 27.0936 35.262 26.6064 35.2096 26.1195C35.1572 25.6325 34.908 25.1846 34.5153 24.8712C34.1226 24.5578 33.6174 24.4039 33.1077 24.4424C32.5981 24.4809 32.1243 24.7086 31.7877 25.077L23.5 34.5983L15.2124 25.0733V25.077Z" />
<path d="M47 52.5272V16.9022L29.375 0.0272217H7.83333C5.7558 0.0272217 3.76336 0.817398 2.29433 2.22392C0.825295 3.63044 0 5.5381 0 7.52722V52.5272C0 54.5163 0.825295 56.424 2.29433 57.8305C3.76336 59.237 5.7558 60.0272 7.83333 60.0272H39.1667C41.2442 60.0272 43.2366 59.237 44.7057 57.8305C46.1747 56.424 47 54.5163 47 52.5272ZM29.375 11.2772C29.375 12.7691 29.994 14.1998 31.0957 15.2547C32.1975 16.3096 33.6919 16.9022 35.25 16.9022H43.0833V52.5272C43.0833 53.5218 42.6707 54.4756 41.9362 55.1789C41.2017 55.8821 40.2054 56.2772 39.1667 56.2772H7.83333C6.79457 56.2772 5.79835 55.8821 5.06383 55.1789C4.32931 54.4756 3.91667 53.5218 3.91667 52.5272V7.52722C3.91667 6.53266 4.32931 5.57883 5.06383 4.87557C5.79835 4.17231 6.79457 3.77722 7.83333 3.77722H29.375V11.2772Z" />
</svg>
