<svg width="47" height="60" viewBox="0 0 47 60" fill="currentColor" xmlns="http://www.w3.org/2000/svg">
<path d="M11.75 28.125C11.75 27.1304 12.1626 26.1766 12.8972 25.4734C13.6317 24.7701 14.6279 24.375 15.6667 24.375H19.5833C20.6221 24.375 21.6183 24.7701 22.3528 25.4734C23.0873 26.1766 23.5 27.1304 23.5 28.125V31.6425L25.0667 37.6388C25.2618 38.389 25.2101 39.1787 24.9184 39.8996C24.6267 40.6206 24.1094 41.2376 23.4373 41.6663L19.7948 43.9913C19.1512 44.4024 18.3948 44.6218 17.6211 44.6218C16.8473 44.6218 16.0909 44.4024 15.4473 43.9913L11.8087 41.6663C11.1373 41.2371 10.6208 40.6199 10.3299 39.899C10.0389 39.178 9.98774 38.3886 10.1833 37.6388L11.75 31.6425V28.125ZM19.5833 28.125H15.6667V31.6425C15.6666 31.9497 15.6272 32.2558 15.5492 32.5538L13.9825 38.5463L17.625 40.8713L21.2636 38.5463L19.6969 32.5538C19.6202 32.2556 19.5821 31.9496 19.5833 31.6425V28.125Z"/>
<path d="M47 16.875V52.5C47 54.4891 46.1747 56.3968 44.7057 57.8033C43.2366 59.2098 41.2442 60 39.1667 60H7.83333C5.7558 60 3.76336 59.2098 2.29433 57.8033C0.825295 56.3968 0 54.4891 0 52.5V7.5C0 5.51088 0.825295 3.60322 2.29433 2.1967C3.76336 0.790176 5.7558 0 7.83333 0L29.375 0L47 16.875ZM35.25 16.875C33.6919 16.875 32.1975 16.2824 31.0957 15.2275C29.994 14.1726 29.375 12.7418 29.375 11.25V3.75H21.5417V7.5H17.625V11.25H21.5417V15H17.625V18.75H21.5417V22.5H15.6667V18.75H11.75V15H15.6667V11.25H11.75V7.5H15.6667V3.75H7.83333C6.79457 3.75 5.79835 4.14509 5.06383 4.84835C4.32931 5.55161 3.91667 6.50544 3.91667 7.5V52.5C3.91667 53.4946 4.32931 54.4484 5.06383 55.1516C5.79835 55.8549 6.79457 56.25 7.83333 56.25H39.1667C40.2054 56.25 41.2017 55.8549 41.9362 55.1516C42.6707 54.4484 43.0833 53.4946 43.0833 52.5V16.875H35.25Z"/>
</svg>
